# xmcd CD database file
#
# Track frame offsets:
#	150
#	16650
#	27001
#	40354
#	54330
#	68878
#	82681
#	100276
#	111283
#	123763
#	139971
#	155946
#	168036
#	181991
#	195713
#	209348
#	224938
#	235833
#	250758
#	264116
#	278661
#	292358
#	307565
#	320390
#	336329
#
# Disc length: 4783 seconds
#
# Revision: 0
# Processed by: cddbd v1.5.1PL0 Copyright (c) Steve Scherf et al.
# Submitted via: CDex 1.50beta8
#
DISCID=6412ad19
DTITLE=Louis Armstrong - Music Haritage
DYEAR=2003
DGENRE=Jazz
TTITLE0=Go Down Moses
TTITLE1=What A Wonderful World
TTITLE2=Moon, River And Me
TTITLE3=Kiss Of Fire
TTITLE4=Only You
TTITLE5=Sesibon (So Good)
TTITLE6=Cabaret
TTITLE7=Hello, Dolly
TTITLE8=Shadrack
TTITLE9=Mack The Knife
TTITLE10=When The Saints Go Marching In
TTITLE11=Dipaz-Cripaz
TTITLE12=Georgia On My Mind
TTITLE13=Nobody Knows The Trouble I've Seen
TTITLE14=Do You Know What It Means To Miss New Orleans
TTITLE15=Honey Baby
TTITLE16=I Love Jazz
TTITLE17=Blueberry Hill
TTITLE18=Rock My Soul (In The Bossom OF Abraham)
TTITLE19=Some Day You'll Be Sorry
TTITLE20=I Want A Little Girl
TTITLE21=Why Doubt My Love
TTITLE22=That's My Desire
TTITLE23=Stars Fell On Alabama (with E. Fitzgerald)
TTITLE24=Summertime (with E. Fitzgerald)
EXTD=YEAR: 2003
EXTT0=
EXTT1=
EXTT2=
EXTT3=
EXTT4=
EXTT5=
EXTT6=
EXTT7=
EXTT8=
EXTT9=
EXTT10=
EXTT11=
EXTT12=
EXTT13=
EXTT14=
EXTT15=
EXTT16=
EXTT17=
EXTT18=
EXTT19=
EXTT20=
EXTT21=
EXTT22=
EXTT23=
EXTT24=
PLAYORDER=
